<svg width="512" height="512" viewBox="0 0 512 512" fill="none" xmlns="http://www.w3.org/2000/svg">
  <rect width="512" height="512" fill="white" />
  <path
    d="M224.585 416.25L132.348 505L101.527 379.799M224.585 416.25L132.348 43.3626M224.585 416.25L317.48 326.866M224.585 416.25L101.527 379.799M132.348 43.3626L10 8L40.1189 130.348M132.348 43.3626L255.33 78.9084M132.348 43.3626L40.1189 130.348M317.48 326.866L255.33 78.9084M317.48 326.866L409.387 238.433M317.48 326.866L70.7059 254.598M255.33 78.9084L378.313 114.454M255.33 78.9084L70.7059 254.598M409.387 238.433L501.295 150L378.313 114.454M409.387 238.433L378.313 114.454M409.387 238.433L40.1189 130.348M378.313 114.454L101.527 379.799M40.1189 130.348L70.7059 254.598M70.7059 254.598L101.527 379.799"
    stroke="black" stroke-width="10.1429" stroke-linecap="round" stroke-linejoin="round" />
</svg>